<svg width="30" height="30" viewBox="0 0 30 30" fill="none" xmlns="http://www.w3.org/2000/svg">
<g clip-path="url(#clip0_3935_21042)">
<mask id="mask0_3935_21042" style="mask-type:alpha" maskUnits="userSpaceOnUse" x="4" y="15" width="5" height="7">
<path d="M4.5 15.6924H8.67631V21.1289H4.5V15.6924Z" fill="white"/>
</mask>
<g mask="url(#mask0_3935_21042)">
<path fill-rule="evenodd" clip-rule="evenodd" d="M7.33695 20.0426C7.20735 20.1348 6.94112 20.213 6.65227 20.213C6.12289 20.213 5.88409 19.8065 5.89335 19.3334C5.90192 18.9404 6.14724 18.4961 6.80827 18.4961H7.33695V20.0426ZM8.67598 17.5054C8.67598 16.141 7.70192 15.6924 6.79181 15.6924C6.16266 15.6924 5.59712 15.8703 5.01563 16.16L4.86718 16.236L5.22083 17.0258L5.42124 16.9318C5.83198 16.7475 6.27118 16.6243 6.66598 16.64C7.14289 16.6598 7.33867 16.8788 7.33867 17.336V17.604H6.55764C5.30261 17.604 4.52141 18.269 4.49963 19.3022C4.49963 20.2834 5.31752 21.1289 6.45564 21.1289C7.37381 21.1289 8.15124 20.8308 8.67598 20.3057V17.5054Z" fill="#E20714"/>
</g>
<path fill-rule="evenodd" clip-rule="evenodd" d="M10.3233 15.3667C10.7929 15.3667 11.1613 14.9992 11.1613 14.5327C11.1673 14.3109 11.086 14.1004 10.9314 13.9411C10.7766 13.7786 10.5639 13.6895 10.3353 13.6895C9.86734 13.6895 9.48523 14.0649 9.48523 14.5265C9.48523 14.9985 9.85414 15.3667 10.3233 15.3667Z" fill="#E20714"/>
<path fill-rule="evenodd" clip-rule="evenodd" d="M10.9802 15.7871L9.66309 16.0021V21.034H10.9802V15.7871Z" fill="#E20714"/>
<path fill-rule="evenodd" clip-rule="evenodd" d="M25.2319 20.208C24.6837 20.166 24.5692 19.9259 24.5692 19.524V14.333L23.2482 14.5583V19.4387C23.2482 20.596 23.8765 21.0914 24.9275 21.0914C25.1524 21.0914 25.4313 21.0384 25.4313 21.0384V20.2096C25.4313 20.2096 25.3079 20.2134 25.2319 20.208Z" fill="#E20714"/>
<path fill-rule="evenodd" clip-rule="evenodd" d="M12.819 10.9714C13.1637 10.9714 13.5719 10.8873 14.0323 10.7208C14.7211 10.4724 15.2668 10.1275 15.7938 9.79407L15.9367 9.70424C16.494 9.35281 17.0382 8.94412 17.5986 8.45384C18.8375 7.36972 19.5816 6.30669 20.0076 5.00761C20.1803 4.48184 20.4246 3.45498 20.1251 2.49207C19.9055 1.79007 19.4808 1.21355 18.8625 0.776238C18.7919 0.717609 18.0211 0.0996094 16.5664 0.0996094C15.2363 0.0996094 13.7779 0.612867 12.232 1.62635L12.1826 1.65875L12.1754 1.66287C12.1307 1.69064 12.0868 1.71807 12.0371 1.75064C12.0016 1.77721 11.9642 1.80309 11.9176 1.83001C11.6016 2.04481 11.3003 2.27641 11.0193 2.52447C10.3665 3.1555 9.62182 4.21184 9.66793 5.10858C9.68713 5.49018 9.84605 5.79995 10.1388 6.03121C10.4037 6.23847 10.7339 6.34355 11.1208 6.34355C11.9124 6.34355 12.7811 5.91207 13.3749 5.54692C13.4112 5.52087 13.4486 5.49618 13.4868 5.4715C13.5904 5.40292 13.6932 5.33367 13.7976 5.26441L13.8986 5.19618C14.7426 4.63047 15.6156 4.04555 16.5995 3.7039C16.8542 3.61595 17.0772 3.5731 17.2819 3.5731C17.3839 3.5731 17.4832 3.58304 17.5775 3.60584C17.8764 3.67424 18.0955 3.84498 18.227 4.11258C18.4545 4.57715 18.4002 5.3107 18.0899 5.98149C17.6668 6.89572 16.9389 7.79675 15.929 8.6599C15.4151 9.09858 14.9394 9.43818 14.5161 9.66824L14.478 9.6895C14.2804 9.79801 14.0579 9.9199 13.8227 10.009L13.7916 10.0212C13.7214 10.0473 13.6624 10.0696 13.6079 10.0886C12.6204 10.3531 13.2213 9.48292 13.2213 9.48292C13.4388 9.22338 13.6605 9.01732 13.895 8.79892C14.0291 8.67447 14.1672 8.54521 14.3058 8.40498L14.3366 8.37447C14.5084 8.2015 14.7446 7.96544 14.7304 7.62584C14.7108 7.1767 14.254 6.89572 13.8261 6.8839C13.8151 6.88338 13.8048 6.88338 13.7939 6.88338C13.3814 6.88338 12.9906 7.12612 12.7356 7.32944C12.4797 7.53412 12.2076 7.84064 12.0264 8.1295C11.7638 8.54641 11.2108 9.60927 11.7492 10.459C11.9644 10.7993 12.3246 10.9714 12.819 10.9714Z" fill="#E20714"/>
<path fill-rule="evenodd" clip-rule="evenodd" d="M20.3914 16.7145C20.977 16.7145 21.0638 17.3498 21.0638 17.7449H19.6377C19.6601 17.2373 19.8713 16.7145 20.3914 16.7145ZM20.5426 21.1427C20.8546 21.1427 21.1798 21.0965 21.4771 21.0038C22.0473 20.8277 22.4676 20.5224 22.4676 20.5224L22.0953 19.758C22.0287 19.8081 21.4603 20.2039 20.6767 20.2039C20.316 20.2039 20.0719 20.0858 19.9123 19.9132C19.6747 19.6569 19.5701 19.1303 19.5977 18.5714H22.4386V18.4406C22.4139 16.5806 21.78 15.7334 20.3914 15.7334C18.8429 15.7334 18.2393 17.1587 18.228 18.4982C18.2181 19.3444 18.538 20.1967 19.1229 20.6824C19.4779 20.9781 19.9708 21.1427 20.5426 21.1427Z" fill="#E20714"/>
<path fill-rule="evenodd" clip-rule="evenodd" d="M15.1892 15.8657C15.045 15.7947 14.7003 15.7061 14.3017 15.7061C13.7228 15.7061 12.8349 15.8759 12.0344 16.7266L12.0337 21.0383H13.3772V16.9796C13.5529 16.8092 13.9251 16.659 14.2779 16.6441C14.6053 16.6316 14.8175 16.7 14.8175 16.7L15.1892 15.8657Z" fill="#E20714"/>
<path fill-rule="evenodd" clip-rule="evenodd" d="M17.7638 16.758V15.7897H16.8952V14.3408L15.5447 14.5572V19.4623C15.5447 20.5608 16.1867 21.0799 17.2627 21.0799C17.5209 21.0799 17.7638 21.032 17.7638 21.032V20.2153C17.7496 20.2136 17.6498 20.2136 17.5735 20.2107C17.0071 20.1913 16.8952 19.879 16.8952 19.5183V16.758H17.7638Z" fill="#E20714"/>
<path fill-rule="evenodd" clip-rule="evenodd" d="M22.5887 22.3271L21.9736 22.395V24.9694C21.9736 25.4291 22.2303 25.6734 22.7169 25.6734C22.7427 25.6741 22.7675 25.675 22.7924 25.675C23.0013 25.675 23.1525 25.6386 23.1594 25.6369L23.1781 25.6318V25.1261L23.1513 25.1283C23.0058 25.1386 22.9482 25.1386 22.8496 25.1327C22.6189 25.1182 22.5887 24.9819 22.5887 24.8511V23.7186H23.1781V23.1541H22.5887V22.3271Z" fill="#E20714"/>
<path fill-rule="evenodd" clip-rule="evenodd" d="M5.14217 24.3908H5.69863C6.51034 24.3908 6.97594 23.9775 6.97594 23.2563C6.97594 22.5327 6.53588 22.1182 5.76994 22.1182H4.5V25.6439H5.14217V24.3908ZM5.14217 22.7288H5.7264C5.94737 22.7288 6.31714 22.7962 6.31714 23.2469C6.31714 23.5961 6.09086 23.7797 5.66297 23.7797H5.14217V22.7288Z" fill="#E20714"/>
<path fill-rule="evenodd" clip-rule="evenodd" d="M9.90735 26.5213H10.565L11.9079 23.186L11.9216 23.1514H11.2637L10.6553 24.6839L10.0092 23.1659L10.0027 23.1514H9.33838L10.3424 25.4379L9.90735 26.5213Z" fill="#E20714"/>
<path fill-rule="evenodd" clip-rule="evenodd" d="M15.0561 23.124C14.7415 23.124 14.4567 23.2463 14.2498 23.4693C14.095 23.2437 13.8427 23.124 13.5146 23.124C13.2835 23.124 13.0582 23.2068 12.8739 23.3561V23.1509H12.259V25.6432H12.8739V24.4049C12.8739 23.9887 13.0869 23.7088 13.4054 23.7088C13.6104 23.7088 13.8199 23.7789 13.8199 24.301V25.6432H14.4341V24.4049C14.4341 23.9954 14.6441 23.7088 14.9455 23.7088C15.1414 23.7088 15.3509 23.7537 15.3509 24.3057V25.6432H15.965V24.2049C15.965 23.4868 15.6591 23.124 15.0561 23.124Z" fill="#E20714"/>
<path fill-rule="evenodd" clip-rule="evenodd" d="M20.5788 23.124C20.3175 23.124 20.0696 23.2087 19.8747 23.3635V23.1509H19.2596V25.6432H19.8747V24.3983C19.8747 23.9731 20.0995 23.7088 20.4607 23.7088C20.6741 23.7088 20.891 23.7782 20.891 24.2918V25.6461H21.5086V24.1876C21.5086 23.5127 21.1692 23.124 20.5788 23.124Z" fill="#E20714"/>
<mask id="mask1_3935_21042" style="mask-type:alpha" maskUnits="userSpaceOnUse" x="23" y="23" width="3" height="3">
<path d="M23.5057 23.125H25.4772V25.6746H23.5057V23.125Z" fill="white"/>
</mask>
<g mask="url(#mask1_3935_21042)">
<path fill-rule="evenodd" clip-rule="evenodd" d="M24.7213 24.1318L24.6144 24.0912C24.3872 24.0041 24.2655 23.9393 24.2655 23.8479C24.2655 23.7624 24.3814 23.7046 24.4889 23.7046C24.6759 23.7046 24.8516 23.7737 25.0088 23.9105L25.1131 23.9996L25.4424 23.4996L25.3584 23.4307C25.1074 23.2249 24.8295 23.125 24.5074 23.125C24.0144 23.125 23.6417 23.436 23.6417 23.8479C23.6417 24.3488 24.0324 24.5276 24.4001 24.6555L24.4534 24.6749C24.4757 24.6835 24.4999 24.691 24.5254 24.6989C24.6253 24.7308 24.7303 24.764 24.805 24.8249C24.8508 24.8622 24.8659 24.9209 24.8448 24.9754C24.8347 25.0045 24.8131 25.0304 24.787 25.0489C24.7469 25.0769 24.6907 25.092 24.6178 25.0969C24.4949 25.1055 24.3622 25.0846 24.2496 25.0392C24.1906 25.016 24.0437 24.9505 23.9412 24.8559L23.8392 24.7603L23.5057 25.2488L23.5853 25.3176C23.8507 25.5545 24.1741 25.6746 24.548 25.6746C25.2349 25.6746 25.4772 25.2624 25.4772 24.9084C25.4791 24.4198 25.1458 24.2929 24.7213 24.1318Z" fill="#E20714"/>
</g>
<path fill-rule="evenodd" clip-rule="evenodd" d="M7.38461 25.4368C7.38941 25.4419 7.39404 25.4457 7.40056 25.4505L7.42456 25.4699C7.4309 25.4745 7.43759 25.4793 7.44427 25.4832L7.46193 25.4963C7.46639 25.4997 7.4681 25.5005 7.47033 25.5005L7.47701 25.5067C7.47701 25.5067 7.48833 25.5139 7.50976 25.5268C7.5701 25.5623 7.63456 25.59 7.69919 25.6084L7.71582 25.6128C7.7201 25.6159 7.72439 25.6166 7.7285 25.6178C7.84867 25.6543 7.98839 25.68 8.14524 25.6919C8.1785 25.6919 8.21262 25.6937 8.24622 25.6937C8.25959 25.6937 8.27313 25.6937 8.28719 25.6924C8.54279 25.6852 8.81245 25.6401 9.09239 25.5571L9.13593 25.5449V23.8864C9.13593 23.8757 9.13593 23.866 9.13456 23.8536V23.8444C9.13456 23.8363 9.1325 23.8274 9.13182 23.8188L9.12085 23.7422L9.11296 23.7076C9.11073 23.699 9.10816 23.689 9.10576 23.6824L9.10267 23.674C9.10182 23.6698 9.09907 23.665 9.09907 23.6642L9.09427 23.646C9.0929 23.6419 9.09239 23.6393 9.09119 23.6362L9.06976 23.5882C9.06719 23.5793 9.06325 23.5726 9.06085 23.5689L9.05827 23.562C9.01747 23.4804 8.95919 23.4024 8.8877 23.3385C8.80542 23.2653 8.70873 23.2075 8.5973 23.1662C8.52187 23.1401 8.44062 23.1209 8.3525 23.1105C8.34804 23.1094 8.34256 23.1094 8.33553 23.1094C8.2793 23.1048 8.22822 23.1016 8.17936 23.1016C7.70364 23.1016 7.36764 23.3277 7.36559 23.3287L7.33541 23.3508L7.58793 23.7458L7.61896 23.7326C7.79724 23.6489 7.96422 23.6054 8.11336 23.6054C8.37393 23.6054 8.5157 23.7401 8.5325 23.8344C8.53336 23.838 8.53473 23.8411 8.5349 23.8444L8.53576 23.8514C8.53799 23.8553 8.53816 23.8584 8.53953 23.862L8.54193 23.8807C8.54279 23.8852 8.54279 23.8894 8.54279 23.8987L8.54502 23.916V23.9285V24.0785H8.05284C7.48216 24.0785 7.14136 24.3842 7.14136 24.8981C7.14136 25.0884 7.20941 25.2592 7.33936 25.3937C7.34467 25.4016 7.35839 25.4141 7.38461 25.4368ZM7.73262 24.8728C7.72764 24.8026 7.75164 24.7353 7.80307 24.6854C7.88896 24.5998 8.0213 24.5812 8.11713 24.5812H8.54502V25.1236C8.44867 25.1488 8.3405 25.162 8.22153 25.1642C8.21176 25.1642 8.20284 25.163 8.19753 25.163C8.1905 25.162 8.18656 25.162 8.18244 25.162C8.08353 25.1582 7.94227 25.1373 7.83359 25.0574C7.77496 25.0133 7.73759 24.9468 7.73262 24.8728Z" fill="#E20714"/>
<path fill-rule="evenodd" clip-rule="evenodd" d="M17.6243 23.125C17.5055 23.125 17.3807 23.144 17.2573 23.179C16.8759 23.2892 16.5941 23.5613 16.4662 23.9436C16.3244 24.3636 16.3918 24.8458 16.6367 25.1737C16.8831 25.5046 17.2112 25.664 17.6381 25.664C17.7354 25.664 17.8405 25.6556 17.9483 25.6392C18.2574 25.5905 18.4991 25.4585 18.6872 25.2375L18.7031 25.2199L18.3123 24.8573L18.2958 24.8727C18.1355 25.0325 17.9279 25.1204 17.7171 25.1204C17.3807 25.1204 17.096 24.9048 17.0552 24.62L17.0502 24.5912H18.7777L18.7794 24.5693C18.8197 24.2547 18.7738 24.024 18.7268 23.8844C18.5542 23.4241 18.1208 23.125 17.6243 23.125ZM17.0651 24.1057C17.0861 23.8961 17.2991 23.7068 17.5421 23.6837C17.8721 23.6508 18.0942 23.7987 18.1799 24.1057H17.0651Z" fill="#E20714"/>
<mask id="mask2_3935_21042" style="mask-type:alpha" maskUnits="userSpaceOnUse" x="4" y="26" width="4" height="5">
<path d="M4.5 26.5234H7.03541V30.0489H4.5V26.5234Z" fill="white"/>
</mask>
<g mask="url(#mask2_3935_21042)">
<path fill-rule="evenodd" clip-rule="evenodd" d="M6.52239 28.177C6.74731 28.0089 6.87177 27.751 6.87177 27.4456C6.87177 26.8504 6.45279 26.5234 5.69182 26.5234H4.49988V30.0489H5.81645C6.57879 30.0489 7.03531 29.6722 7.03531 29.0381C7.03531 28.6521 6.84794 28.3392 6.52239 28.177ZM5.14205 28.5358H5.72096C5.96388 28.5358 6.37068 28.5962 6.37068 29.0021C6.37068 29.3815 5.95308 29.4376 5.70382 29.4376H5.14205V28.5358ZM5.68788 27.9334H5.14205V27.1334H5.60919C6.21691 27.1334 6.21691 27.427 6.21691 27.5241C6.21691 27.905 5.81165 27.9334 5.68788 27.9334Z" fill="#E20714"/>
</g>
<path fill-rule="evenodd" clip-rule="evenodd" d="M11.242 27.5303C10.9785 27.5303 10.7313 27.6146 10.5374 27.7696V27.5568H9.92114V30.0491H10.5374V28.8042C10.5374 28.3778 10.7627 28.1147 11.1242 28.1147C11.3366 28.1147 11.5533 28.1831 11.5533 28.698V30.0523H12.1703V28.5943C12.1703 27.9175 11.8303 27.5303 11.242 27.5303Z" fill="#E20714"/>
<path fill-rule="evenodd" clip-rule="evenodd" d="M9.40057 28.2374C9.40057 28.2295 9.39954 28.2209 9.39783 28.2122L9.38634 28.1354L9.36269 28.0418C9.36131 28.0373 9.3596 28.0334 9.35823 28.0288L9.35086 28.0125C9.34794 28.0055 9.34503 27.9981 9.34057 27.989L9.33783 27.9815C9.3344 27.9739 9.33029 27.966 9.32377 27.9549C9.2852 27.874 9.22726 27.7961 9.15509 27.7317C9.07349 27.6566 8.9756 27.5988 8.86486 27.5594C8.78874 27.532 8.70611 27.5133 8.61628 27.5032H8.60326C8.54548 27.497 8.49491 27.4951 8.44657 27.4951C7.99194 27.4951 7.66828 27.6979 7.63263 27.7219L7.60023 27.7432L7.83594 28.1105L7.85377 28.14L7.88634 28.1258C8.06497 28.0413 8.23074 27.9988 8.38023 27.9988C8.6408 27.9988 8.7824 28.1325 8.7992 28.2287C8.8004 28.2343 8.80143 28.2384 8.80314 28.2432C8.80434 28.2472 8.80451 28.2513 8.80537 28.2564L8.80914 28.2729C8.80983 28.2767 8.80983 28.2827 8.81034 28.29C8.81034 28.2948 8.81034 28.2976 8.8112 28.3089C8.8124 28.3121 8.8124 28.3169 8.8124 28.3209V28.4699H8.31903C7.74834 28.4699 7.40857 28.7777 7.40857 29.2912C7.40857 29.4813 7.47525 29.6522 7.60554 29.7852C7.60777 29.7888 7.62354 29.8053 7.65268 29.8308L7.69108 29.8624C7.70137 29.8697 7.71251 29.8775 7.72228 29.8833L7.73754 29.8961L7.74268 29.8987C7.74268 29.8987 7.75468 29.9063 7.77714 29.9196C7.83766 29.9544 7.90074 29.9822 7.96674 30.0012L7.97171 30.0035C7.97908 30.0053 7.98783 30.0084 7.99554 30.0112C8.11828 30.0485 8.25868 30.0737 8.41211 30.0835C8.44486 30.0854 8.4788 30.0861 8.51343 30.0861C8.52611 30.0861 8.53966 30.0861 8.55406 30.0854C8.8076 30.0784 9.07931 30.0324 9.35874 29.9493L9.40177 29.9361V28.2784V28.2472L9.40057 28.2374ZM8.8124 28.9751V29.5157C8.71726 29.5411 8.60703 29.5545 8.48823 29.5574C8.47366 29.5562 8.46286 29.5553 8.45051 29.5553C8.3492 29.5505 8.20674 29.5295 8.1008 29.4497C8.04097 29.4062 8.00446 29.3392 7.99966 29.2656C7.994 29.1936 8.0192 29.1275 8.07046 29.0767C8.1548 28.9919 8.28851 28.9751 8.38331 28.9751H8.8124Z" fill="#E20714"/>
<path fill-rule="evenodd" clip-rule="evenodd" d="M15.7731 27.0947C15.743 27.0735 15.7035 27.0714 15.6932 27.0714H13.8019C13.7114 27.0714 13.6371 27.1455 13.6371 27.2365C13.6371 27.3272 13.7114 27.4014 13.8019 27.4014L14.2939 27.3749C14.3366 27.4637 14.3551 27.5506 14.3606 27.6272H13.8382C13.7559 27.6272 13.6896 27.6944 13.6896 27.7769C13.6896 27.7925 13.693 27.8075 13.6971 27.8216C13.7158 27.8819 13.7715 27.9262 13.8382 27.9262L14.333 27.8977C14.3312 27.9017 14.3304 27.9051 14.3304 27.9051C14.2376 28.2476 13.6774 28.2299 13.6774 28.2299H13.4744H13.3032V28.0109V26.5215H12.6898V30.049H13.3032V28.8133H13.4042H13.5221C13.532 28.8133 13.5341 28.8155 13.5404 28.8231C13.7006 29.0633 13.8617 29.3029 14.0232 29.5434L14.3652 30.049H15.1346L14.3772 28.9558C14.328 28.8836 14.2788 28.8133 14.2304 28.7413L14.2414 28.7375C14.2553 28.7339 14.2692 28.7291 14.2834 28.7243C14.4368 28.6693 14.5649 28.5965 14.6676 28.4998C14.8373 28.3434 14.9372 28.1417 14.9738 27.8859C14.9751 27.8751 14.9755 27.8634 14.9772 27.854L15.4889 27.8197C15.5439 27.8156 15.5652 27.7907 15.5794 27.7673C15.5967 27.7321 15.5883 27.7023 15.5864 27.6944C15.5727 27.6512 15.5367 27.6287 15.4778 27.6272H14.987C14.9852 27.584 14.983 27.5387 14.9775 27.4937C14.9719 27.4407 14.9623 27.3886 14.9504 27.338C15.1219 27.3272 15.2856 27.3178 15.4171 27.3097L15.7015 27.2936C15.7253 27.2927 15.7683 27.2831 15.7968 27.2458C15.8091 27.2274 15.8158 27.2053 15.8158 27.1832C15.8158 27.1486 15.8021 27.1175 15.7731 27.0947Z" fill="#E20714"/>
</g>
<defs>
<clipPath id="clip0_3935_21042">
<rect width="30" height="30" fill="white"/>
</clipPath>
</defs>
</svg>
